<svg width="128" height="128" viewBox="0 0 128 128" fill="none" xmlns="http://www.w3.org/2000/svg">
<path fill-rule="evenodd" clip-rule="evenodd" d="M64.053 1C28.6333 1 0 29.8749 0 65.597C0 94.1517 18.3464 118.323 43.7976 126.877C46.9797 127.521 48.1453 125.487 48.1453 123.777C48.1453 122.28 48.0404 117.147 48.0404 111.798C30.2224 115.649 26.512 104.098 26.512 104.098C23.6485 96.6113 19.4057 94.6872 19.4057 94.6872C13.5739 90.73 19.8305 90.73 19.8305 90.73C26.2996 91.1579 29.694 97.3607 29.694 97.3607C35.4196 107.199 44.6459 104.419 48.3577 102.708C48.8873 98.5367 50.5852 95.6492 52.388 94.0454C38.1769 92.5478 23.225 86.9868 23.225 62.1741C23.225 55.1155 25.7686 49.3405 29.7989 44.8491C29.163 43.2453 26.9354 36.6132 30.4361 27.7368C30.4361 27.7368 35.8444 26.0253 48.0391 34.3676C53.26 32.9536 58.6443 32.2342 64.053 32.2282C69.4613 32.2282 74.9745 32.9776 80.0655 34.3676C92.2615 26.0253 97.6698 27.7368 97.6698 27.7368C101.17 36.6132 98.9416 43.2453 98.3057 44.8491C102.442 49.3405 104.881 55.1155 104.881 62.1741C104.881 86.9868 89.929 92.4402 75.6117 94.0454C77.9455 96.0771 79.9593 99.9267 79.9593 106.023C79.9593 114.686 79.8545 121.638 79.8545 123.776C79.8545 125.487 81.0213 127.521 84.2021 126.879C109.653 118.321 128 94.1517 128 65.597C128.105 29.8749 99.3664 1 64.053 1Z" fill="white"/>
</svg>
